<svg width="70" height="58" viewBox="0 0 70 58" fill="none" xmlns="http://www.w3.org/2000/svg">
<path d="M28.3561 5.40888H6.53926V19.0123H26.2386V24.4024H6.53926V39.61H28.3561V45H0.507554V0.0830116H28.3561V5.40888ZM56.4387 9.06641C60.7165 9.06641 64.0104 10.6278 66.3205 13.7506C68.6733 16.8734 69.8497 21.3009 69.8497 27.0332C69.8497 32.9366 68.6733 37.5138 66.3205 40.765C64.0104 44.0161 60.7165 45.6417 56.4387 45.6417C51.7331 45.6417 48.2467 43.7808 45.9795 40.0591V57.1918H40.2044V9.70808H44.5678L45.5303 15.7398C47.8403 11.2909 51.4765 9.06641 56.4387 9.06641ZM54.8987 40.5083C58.1498 40.5083 60.4599 39.5458 61.8288 37.6208C63.1977 35.653 63.8821 32.3377 63.8821 27.6749C63.8821 22.841 63.1977 19.3973 61.8288 17.344C60.4599 15.2478 58.1498 14.1998 54.8987 14.1998C51.6476 14.1998 49.3376 15.1837 47.9687 17.1515C46.6425 19.0765 45.9795 22.3704 45.9795 27.0332C45.9795 31.8671 46.6639 35.3322 48.0328 37.4283C49.4017 39.4816 51.6904 40.5083 54.8987 40.5083Z" fill="#0D5FA3"/>
</svg>
